<svg xmlns="http://www.w3.org/2000/svg" width="92.87" height="29.01" viewBox="0 0 92.87 29.01"><g transform="translate(-75.859 404.053)"><rect width="59.3" height="23.903" transform="translate(109.153 -398.946)" fill="#fff"/><g transform="translate(75.859 -404.053)"><path d="M189.3-352.527c0-1.738-.054-3.477.011-5.213.138-3.678,3.012-5.53,6.469-4.189a3.826,3.826,0,0,1,2.4,3.441c.093.8.04,1.62.08,2.429.02.4-.15.458-.509.479-2.248.131-2.247.142-2.319-2.061-.038-1.169-.444-1.778-1.263-1.891-1.2-.166-1.854.426-1.862,1.774-.017,3.1-.006,6.2-.006,9.3,0,.492-.02.986.009,1.477a1.442,1.442,0,0,0,1.439,1.532,1.421,1.421,0,0,0,1.634-1.413c.085-1.182.028-2.373.054-3.56.01-.466-.3-.445-.579-.4-.732.122-.841-.23-.83-.87.033-1.863.007-1.864,1.831-1.864.608,0,1.218.025,1.824-.011.468-.028.586.154.58.6-.026,1.969.036,3.941-.037,5.908a4.5,4.5,0,0,1-7.033,3.712,3.85,3.85,0,0,1-1.84-3.357c-.071-1.937-.018-3.879-.018-5.819Z" transform="translate(-169.533 369.622)" fill="#fff"/><path d="M161.319-351.248c0-2.9.025-5.8-.019-8.692-.01-.684.2-.846.829-.794.689.057,1.618-.233,2.018.116.472.412.146,1.362.148,2.076.015,5.331,0,10.663.021,15.994,0,.62-.066.984-.816.872-.705-.105-1.658.31-2.069-.167-.348-.4-.108-1.324-.11-2.016Q161.314-347.554,161.319-351.248Z" transform="translate(-146.379 368.324)" fill="#fff"/><path d="M326.691-373.975c0-.746-.249-.828-.882-.828q-28.9.022-57.807,0c-.745,0-.886.224-.883.919q.037,11.04,0,22.079c0,.708.151.918.889.916q14.43-.039,28.86-.017c9.62,0,19.24-.011,28.86.022.829,0,.966-.248.963-1.007Q326.643-362.935,326.691-373.975Zm-49.7,4.149c-.938-.007-1.393.468-1.494,1.532a3.982,3.982,0,0,0,1.3,3.272c.913.927,1.882,1.8,2.772,2.749a6.46,6.46,0,0,1,1.566,6.2,3.844,3.844,0,0,1-4.071,3.064c-2.289.051-3.745-.909-4.326-2.845a9.209,9.209,0,0,1-.286-2.665c0-.32.084-.5.437-.463.115.012.231,0,.347,0,.636.007,1.4-.2,1.875.078.542.324.132,1.163.235,1.771.152.9.631,1.4,1.46,1.4a1.435,1.435,0,0,0,1.507-1.372,3.791,3.791,0,0,0-1.118-3.245c-.942-.979-1.958-1.888-2.891-2.874a6.351,6.351,0,0,1-1.813-5.151c.3-3.134,2.35-4.663,5.457-4.09a4.239,4.239,0,0,1,3.389,4.968c-.05.263-.151.334-.388.327-.347-.01-.695,0-1.042,0a1.705,1.705,0,0,0-.26,0c-.818.126-1.244-.044-1.175-1.049A1.349,1.349,0,0,0,276.995-369.826Zm14.527-.2c.085.42-.2.459-.53.451-.608-.014-1.22.037-1.824-.016s-.789.118-.779.747c.039,2.462.016,4.925.016,7.388,0,2.492-.013,4.984.011,7.475.005.538-.093.8-.7.736-.742-.082-1.72.3-2.179-.139s-.136-1.429-.138-2.175c-.013-4.4-.02-8.808.01-13.212,0-.64-.132-.932-.8-.811a2,2,0,0,1-.347,0c-2.231,0-2.22,0-2-2.282.034-.347.146-.439.47-.438,2.781.009,5.563.006,8.344.007.058,0,.142-.019.17.011C291.875-371.6,291.37-370.778,291.521-370.031Zm10.03,12.29c-.057,3.779-3.024,5.76-6.571,4.391a3.9,3.9,0,0,1-2.512-3.906c-.07-3.677-.08-7.357,0-11.034.06-2.742,1.768-4.261,4.545-4.261,2.73,0,4.372,1.489,4.495,4.211.082,1.821.016,3.648.016,5.472h.033C301.555-361.159,301.577-359.45,301.551-357.741Zm9.074,4.5c-.979.143-1.2-.341-1.2-1.165,0-1.418-.016-2.836-.041-4.253-.032-1.793-.6-2.316-2.362-2.316-.562,0-.665.192-.658.7.026,2.084-.01,4.168.023,6.251.009.574-.088.853-.734.775-.735-.089-1.725.31-2.148-.174-.363-.415-.113-1.376-.114-2.1,0-5.326.01-10.651-.018-15.977,0-.638.132-.848.8-.818,1.531.068,3.07-.013,4.6.085a3.423,3.423,0,0,1,3.532,3.439,14.568,14.568,0,0,1-.013,3.378,3.506,3.506,0,0,1-1.866,2.893c1.643.829,1.914,2.284,1.976,3.839a29.5,29.5,0,0,0,.235,5.421A14.132,14.132,0,0,0,310.625-353.242Zm9.811-.018c-1.8,0-3.593-.022-5.389.013-.56.011-.727-.131-.721-.708.03-2.955.014-5.911.014-8.866,0-2.926.02-5.853-.017-8.779-.007-.6.173-.717.724-.71q3.39.041,6.78,0c.511-.006.692.1.693.664,0,2.062.027,2.062-2.059,2.062-.869,0-1.739.019-2.608-.006-.416-.012-.544.12-.537.542q.037,2.129,0,4.259c-.009.453.113.6.579.587.955-.036,1.913.011,2.868-.02.493-.016.7.073.7.65,0,2.081.027,2.063-2.053,2.091-.679.009-1.583-.328-1.976.166-.328.412-.1,1.273-.106,1.935-.007.927.029,1.856-.014,2.781-.024.513.155.632.636.621,1.3-.029,2.608.007,3.911-.018.465-.008.647.089.657.615C322.555-353.26,322.576-353.26,320.435-353.26Z" transform="translate(-233.821 379.898)" fill="#16d17e"/><path d="M88.623-387.148a4.937,4.937,0,0,0-3.082-4.444,4.41,4.41,0,0,0,2.606-3.511,13.108,13.108,0,0,0-.056-4.838,4.6,4.6,0,0,0-4.176-3.919,68.746,68.746,0,0,0-7.286-.186c-.6-.026-.775.119-.769.743.032,3.649.015,7.3.015,10.947q0,7.125,0,14.249c0,.358-.118.728.524.714,2.229-.047,4.462.038,6.689-.052,3.251-.13,5.121-1.887,5.528-5.111A20.408,20.408,0,0,0,88.623-387.148Zm-8.147-13.065c.286.027.577.006.866.005,2.184,0,2.749.552,2.783,2.769a17.29,17.29,0,0,1-.068,2.248,2.039,2.039,0,0,1-2.2,1.977c-1.894.079-1.894.079-1.893-1.764q0-.866,0-1.733c0-.982.017-1.965-.009-2.946C79.942-400.06,80.041-400.253,80.476-400.213Zm3.988,17.14c-.14,1.337-.79,1.834-2.163,1.845-.746.006-1.719.245-2.178-.128-.491-.4-.12-1.41-.154-2.153-.027-.606-.006-1.215-.007-1.822,0-1.157.015-2.315-.009-3.471-.009-.443.111-.632.584-.592a18.822,18.822,0,0,1,2.076.085,1.939,1.939,0,0,1,1.775,1.741A16.011,16.011,0,0,1,84.463-383.073Z" transform="translate(-75.859 404.053)" fill="#fff"/><path d="M492.585-342.676c0-.809,0-1.618,0-2.426,0-.187-.061-.389.2-.507a1.916,1.916,0,0,1,2.761,1.641,23,23,0,0,1-.012,2.6,2,2,0,0,1-2.75,1.627c-.27-.117-.2-.322-.2-.505C492.578-341.059,492.584-341.868,492.585-342.676Z" transform="translate(-420.038 355.938)" fill="#16d17e"/><path d="M432.805-339.085c0,1.793.008,3.586,0,5.379a1.487,1.487,0,0,1-.834,1.5,1.585,1.585,0,0,1-1.65-.139,1.991,1.991,0,0,1-.636-1.8q0-4.772,0-9.544c0-.231-.009-.463,0-.694.053-1.251.565-1.814,1.623-1.793,1.014.02,1.49.573,1.5,1.8.013,1.764,0,3.528,0,5.292Z" transform="translate(-368.086 356.251)" fill="#16d17e"/></g></g></svg>