<?xml version="1.0" encoding="utf-8"?>
<!-- Generator: Adobe Illustrator 24.1.0, SVG Export Plug-In . SVG Version: 6.00 Build 0)  -->
<svg version="1.1" id="_8de17198-7ae2-47ff-b503-0799787369b4"
	 xmlns="http://www.w3.org/2000/svg" xmlns:xlink="http://www.w3.org/1999/xlink" x="0px" y="0px" viewBox="0 0 344.6 175.8"
	 style="enable-background:new 0 0 344.6 175.8;" xml:space="preserve">
<style type="text/css">
	.st0{fill:#FFFFFF;}
	.st1{fill:#16D17E;}
</style>
<g>
	<path class="st0" d="M244.3,177c-23.5-0.8-47.1,1.5-70.6-1.2c-19.8-2.3-27.5-10-29.3-30c-1.8-19.1-0.5-38.2-0.7-57.3
		c-0.2-15.6,0.1-31.2-0.1-46.8c0-4,0.6-5.9,5.3-5.8c10.5,0.4,21.1,0.4,31.7,0c5.5-0.2,6,2.1,5.9,6.6c-0.2,31.4,0.1,62.9-0.2,94.3
		c-0.1,5.7,1.3,7.3,7.2,7.3c33.9-0.3,67.8-0.2,101.7-0.1c4.8,0,7.3-0.5,6.8-6.3c-0.5-6.1-2.1-14.3,1-17.8c3.6-4.1,12-1,18.3-1.3
		c6.4-0.2,12.8-0.1,19.1,0c1.9,0,4.2-0.6,4.1,2.6c-0.3,11.4,0.8,22.8-2.2,34.1c-3.5,13.3-13.1,18.4-25.5,20.3
		c-16.6,2.5-33.4,1.1-50.1,1.4C259.2,177.1,251.7,177,244.3,177z"/>
	<path class="st1" d="M84.8,88.2c0-27.3,0.1-54.6-0.1-81.8c0-4.8,1-6.4,6.1-6.3c38.5,0.2,77,0.2,115.6,0c4.6,0,6.1,1.1,5.8,5.8
		c-0.4,6.6-0.4,13.2,0,19.8c0.3,4.9-1,6.3-6.1,6.3c-24-0.3-48,0-72-0.3c-5.4-0.1-7,1.2-7,6.8c0.2,43.6-0.1,87.1,0.3,130.7
		c0.1,7-2.1,8.4-8.4,8c-9-0.5-18.1-0.5-27.1,0c-5.6,0.3-7.5-1.1-7.4-7.1C85,142.7,84.8,115.5,84.8,88.2z"/>
	<path class="st0" d="M267.7,0.2c13.9,0.6,30.6-1.1,47.3,1.2c19.3,2.6,27.6,11.1,29.1,30.4c0.6,7.7,0.2,15.4,0.5,23.1
		c0.1,2.9-0.9,3.8-3.8,3.8c-11.7-0.1-23.3-0.1-35,0c-3.3,0-4.1-1.3-4-4.3c0.2-5.7-0.2-11.4,0.1-17.1c0.3-4.3-1.1-5.6-5.5-5.5
		c-24.4,0.2-48.8,0-73.3,0.2c-5,0.1-7.1-1-6.6-6.4c0.5-6.1,0.5-12.3,0-18.4c-0.4-5.3,1-7.2,6.7-7C237.2,0.4,251,0.2,267.7,0.2z"/>
	<path class="st0" d="M38,0.2c10.8,0,21.5,0.2,32.3-0.1c3.8-0.1,5,1.1,4.8,4.8c-0.3,7.2-0.3,14.5,0,21.7c0.1,3.9-0.8,5.3-5.1,5.3
		c-21.7-0.2-43.5-0.2-65.2,0c-3.7,0-5-1-4.9-4.8c0.3-7,0.3-14,0-21c-0.2-4.5,1-6.1,5.8-6C16.5,0.4,27.3,0.2,38,0.2z"/>
</g>
</svg>
