<svg xmlns="http://www.w3.org/2000/svg" width="31" height="23.008" viewBox="0 0 31 23.008"><g transform="translate(0 -66)"><g transform="translate(8.658 68.422)"><g transform="translate(0 0)"><path d="M143.605,106a.605.605,0,1,0,.605.605A.607.607,0,0,0,143.605,106Z" transform="translate(-143 -106)" fill="#fff"/></g></g><g transform="translate(0 66)"><g transform="translate(0 0)"><path d="M30.395,66H.605A.607.607,0,0,0,0,66.605V88.4a.607.607,0,0,0,.605.605H30.395A.607.607,0,0,0,31,88.4v-21.8A.607.607,0,0,0,30.395,66Zm-.605,21.8H1.211V67.211H29.789Z" transform="translate(0 -66)" fill="#fff"/></g></g><g transform="translate(23.553 81.137)"><g transform="translate(0 0)"><path d="M393.238,316a.607.607,0,0,0-.605.605v3.633h-3.027a.605.605,0,0,0,0,1.211h3.633a.607.607,0,0,0,.605-.605v-4.238A.607.607,0,0,0,393.238,316Z" transform="translate(-389 -316)" fill="#fff"/></g></g><g transform="translate(2.604 68.422)"><g transform="translate(0 0)"><path d="M47.238,106H43.605a.607.607,0,0,0-.605.605v4.238a.605.605,0,0,0,1.211,0v-3.633h3.027a.605.605,0,0,0,0-1.211Z" transform="translate(-43 -106)" fill="#fff"/></g></g><g transform="translate(2.61 68.24)"><g transform="translate(0 0)"><path d="M68.633,111.767l-12.291-8.658a.611.611,0,0,0-.7,0l-12.291,8.658a.6.6,0,0,0-.254.5.614.614,0,0,0,.254.5l12.291,8.658a.6.6,0,0,0,.351.109.631.631,0,0,0,.351-.109l12.291-8.658a.6.6,0,0,0,.254-.5A.637.637,0,0,0,68.633,111.767ZM55.99,120.183l-11.237-7.92,11.237-7.92,11.238,7.92Z" transform="translate(-43.1 -103)" fill="#fff"/></g></g><g transform="translate(10.656 72.66)"><g transform="translate(0 0)"><path d="M180.844,176a4.844,4.844,0,1,0,4.844,4.844A4.846,4.846,0,0,0,180.844,176Zm0,1.211a3.637,3.637,0,0,1,3.621,3.354,12.09,12.09,0,0,0-6.854-1.368A3.648,3.648,0,0,1,180.844,177.211Zm0,7.266a3.636,3.636,0,0,1-3.633-3.633c0-.127.006-.26.018-.388a10.936,10.936,0,0,1,7.1,1.417A3.62,3.62,0,0,1,180.844,184.477Z" transform="translate(-176 -176)" fill="#fff"/></g></g></g></svg>