<svg xmlns="http://www.w3.org/2000/svg" width="23.365" height="15.186" viewBox="0 0 23.365 15.186"><g transform="translate(0.043 -89.486)"><path d="M19.757,91.526a14.69,14.69,0,0,0-6.2-1.939A15.735,15.735,0,0,0,3.075,91.841c-4.088,2.706-4.161,7.519-.192,10.408a14.279,14.279,0,0,0,8.751,2.423,15.116,15.116,0,0,0,8.364-2.1C24.525,99.616,24.411,94.278,19.757,91.526Zm.652,9.313a14.841,14.841,0,0,1-9.919,2.519,13.958,13.958,0,0,1-6.967-2.081C1.88,100.214.593,98.877.507,96.755c-.027-.7.082-1.013.94-.757,1.268.379,2.532.73,3.769,1.209a13.756,13.756,0,0,0,2.309.187c1.237.228,2.587.1,3.217,1.538.119.274.36.256.57.329a1.157,1.157,0,0,1,.771.958c.187,1.022.333,1.109,1.387.739-.319-.379-.63-.744-.94-1.1.046-.05.091-.1.137-.155.347.3.694.6,1.036.908a.7.7,0,0,0,1.063-.046c.37-.37-.027-.579-.233-.812-.283-.324-.584-.634-.972-1.049.689.087.963.566,1.319.881.465.406.922.579,1.387.1.511-.529-.037-.812-.342-1.122-.338-.342-.7-.662-1.054-.99.059-.068.123-.132.183-.2.484.4.976.789,1.451,1.2a.8.8,0,0,0,1.232.027c.452-.479.009-.776-.319-1.045-1.287-1.049-2.569-2.1-3.878-3.125-1.113-.871-1.56-.858-2.76-.046-.648.438-1.223,1.04-2.126.935-.4-.05-.844-.05-1.049-.443-.251-.484.251-.689.488-.976a5.244,5.244,0,0,1,.488-.465c-2.049.388-3.76-.388-5.571-.963,4.44-3.395,13.647-3.3,17.4.151a7.119,7.119,0,0,1-5.776.146c-2.783-1.136-4.4-.739-6.36,1.529-.119.137-.379.256-.219.479.078.11.283.141.438.169a2.107,2.107,0,0,0,1.633-.575c1.862-1.355,2.277-1.351,4.088.082,1.045.821,2.09,1.643,3.094,2.514a1.049,1.049,0,0,0,1.232.183c1.118-.411,2.277-.7,3.408-1.072.712-.233.881.018.849.721A5.144,5.144,0,0,1,20.409,100.839Z" transform="translate(0 0)" fill="#fff"/><path d="M124.188,266.467a.742.742,0,0,1,1.077-.689c.132.078.292.356.319.338.83-.475,1.515-.032,2.213.328.046.023.128-.023.2-.023.269-.009.716,0,.7.224-.087,1.2,1.533.9,1.6,1.889a.842.842,0,0,1-.525.785.744.744,0,0,1-1-.137c-.3-.47-.675-.456-1.141-.584a7.239,7.239,0,0,1-1.675-.8c-.479-.287-.767-.908-1.474-.94C124.361,266.855,124.256,266.563,124.188,266.467Z" transform="translate(-118.562 -168.165)" fill="#fff"/></g></svg>