<svg xmlns="http://www.w3.org/2000/svg" width="29.868" height="12.994" viewBox="0 0 29.868 12.994"><g transform="translate(-0.003 -141.9)"><path d="M29.743,141.9q-3.817.009-7.629.006-8.479,0-16.958.006a3.863,3.863,0,0,0-1.577.328,2.174,2.174,0,0,0-1.208,1.214,4.883,4.883,0,0,0-.217.862c-.369,1.783-.733,3.559-1.1,5.342Q.539,152.191.02,154.736c-.035.158-.029.158.135.158H12.5v-.006c4.1,0,8.2.006,12.3-.006a3.5,3.5,0,0,0,1.759-.44,2,2,0,0,0,1.02-1.366c.264-1.226.51-2.463.762-3.688q.756-3.677,1.513-7.347C29.89,141.918,29.861,141.9,29.743,141.9ZM7.7,145.823a.422.422,0,0,1,.281-.006.226.226,0,0,1,.152.276c0,.328-.182.51-.469.493a.236.236,0,0,1-.246-.264A.461.461,0,0,1,7.7,145.823Zm-1.589,4.3c-.012.094-.041.147-.152.135a3.616,3.616,0,0,0-.5,0c-.1.006-.106-.035-.094-.117.123-.645.24-1.3.364-1.941.018-.1.018-.147-.111-.147-.581.006-1.167.006-1.747,0-.1,0-.135.029-.152.129-.106.633-.217,1.261-.317,1.894-.018.129-.047.194-.194.176a2.444,2.444,0,0,0-.463,0c-.123.006-.106-.053-.088-.129.1-.516.2-1.038.3-1.554.164-.839.281-1.689.422-2.527,0-.018.006-.035.006-.047,0-.123.053-.158.176-.152.194.012.387.006.586.006-.1.551-.2,1.091-.3,1.63-.023.117-.006.152.117.152.6.018,1.19.012,1.788,0,.076,0,.094-.029.106-.1.088-.528.182-1.055.264-1.589.012-.076.035-.094.111-.094.211.006.428,0,.645,0-.111.6-.223,1.2-.328,1.794C6.377,148.473,6.236,149.3,6.107,150.127Zm1.3.041c-.012.076-.035.1-.106.094-.152-.006-.311-.006-.463,0-.065,0-.094,0-.076-.088.205-.973.387-1.958.522-2.944.012-.07.035-.111.117-.106.182.006.358,0,.545,0-.07.381-.147.762-.217,1.143C7.6,148.9,7.485,149.535,7.4,150.168Zm3.665-1.4a2.279,2.279,0,0,1-.6,1.179,1.471,1.471,0,0,1-.868.387,2.353,2.353,0,0,1-.287.012.71.71,0,0,1-.668-.434c-.059.369-.111.7-.158,1.026-.035.217-.065.44-.094.657-.006.053-.023.07-.076.07H7.8c-.076,0-.065-.041-.053-.088.152-.8.3-1.607.446-2.41.111-.633.217-1.272.317-1.912.018-.117.053-.158.17-.147a2.2,2.2,0,0,0,.34,0c.059,0,.076.018.059.076a2.022,2.022,0,0,0-.041.229,1.585,1.585,0,0,1,.7-.34,1.422,1.422,0,0,1,.932.106.864.864,0,0,1,.44.569A2.145,2.145,0,0,1,11.068,148.772Zm3.114-.328c-.018.106-.065.123-.158.123-.475-.006-.95-.012-1.419-.012-.17,0-.346.012-.516.018-.041,0-.076.006-.082.059a1.97,1.97,0,0,0-.006.786.644.644,0,0,0,.622.475,2.387,2.387,0,0,0,1.243-.229c-.029.176-.059.323-.082.475-.006.041-.029.053-.065.059a3.686,3.686,0,0,1-1.677.076.956.956,0,0,1-.721-.868,3.014,3.014,0,0,1,.287-1.466,1.506,1.506,0,0,1,1.3-.874,2.152,2.152,0,0,1,.774.053.715.715,0,0,1,.569.727A5.194,5.194,0,0,1,14.181,148.444Zm1.313-.522a2.477,2.477,0,0,0-.317,1.009c-.076.41-.152.827-.188,1.243-.006.064-.023.094-.1.094-.152-.006-.3-.006-.452,0-.088.006-.106-.018-.088-.106.088-.44.182-.88.258-1.319q.141-.818.264-1.636c.012-.064.029-.082.094-.082q.2.009.4,0c.065,0,.088.006.07.082-.029.123-.047.252-.07.381.006.006.018.006.023.012.041-.053.082-.106.123-.152a.967.967,0,0,1,.639-.387.9.9,0,0,1,.393.064c.035.012.041.035.035.07,0,.006-.006.018-.006.023-.023.117-.012.258-.076.34s-.2-.012-.3-.018A.741.741,0,0,0,15.495,147.922Zm3.284-.328a2.2,2.2,0,0,0-.78-.123.877.877,0,0,0-.85.516,2.182,2.182,0,0,0-.188.528,2.158,2.158,0,0,0-.047.844.588.588,0,0,0,.61.534,2.1,2.1,0,0,0,.985-.205c-.029.152-.059.287-.082.422a.1.1,0,0,1-.082.082,2.72,2.72,0,0,1-1.437.076.9.9,0,0,1-.639-.733,2.66,2.66,0,0,1,.328-1.718,1.444,1.444,0,0,1,1.19-.751,6.194,6.194,0,0,1,1.044.023c.082.006.123.029.106.123a3.077,3.077,0,0,0-.053.323C18.866,147.605,18.843,147.611,18.778,147.594Zm3,.328c-.106.592-.217,1.184-.3,1.783a4.313,4.313,0,0,0-.035.475c0,.059-.023.082-.082.076q-.2-.009-.4,0c-.065,0-.082-.023-.076-.082.012-.123.023-.246.029-.369a1.57,1.57,0,0,1-.522.4,1.425,1.425,0,0,1-1.179-.012.6.6,0,0,1-.34-.522,1.2,1.2,0,0,1,.369-1.1,1.442,1.442,0,0,1,.88-.352c.3-.023.6-.006.9-.006.07,0,.106-.018.111-.094a.63.63,0,0,0-.012-.452c-.123-.2-.334-.205-.534-.211a3.315,3.315,0,0,0-.991.135c-.1.023-.123.012-.094-.088.035-.123.029-.27.1-.358s.235-.029.352-.047a3.6,3.6,0,0,1,1.349.006.582.582,0,0,1,.457.369A.864.864,0,0,1,21.781,147.922Zm1.19.369a10.2,10.2,0,0,0-.27,1.39,2.163,2.163,0,0,0-.059.51c.006.07-.035.07-.088.07-.158,0-.317-.006-.475,0-.088.006-.094-.029-.082-.1.088-.44.176-.88.258-1.319.094-.539.182-1.079.264-1.624.012-.082.035-.106.117-.1.123.006.252.006.375,0,.07,0,.088.018.07.088-.029.123-.041.252-.064.375a1.9,1.9,0,0,1,.446-.422.841.841,0,0,1,.692-.059c.059.018.082.041.065.106-.023.1-.041.205-.059.311-.006.041-.006.07-.065.053A.885.885,0,0,0,22.971,148.291Zm4.327-2.439c-.182.891-.346,1.783-.5,2.68a14.423,14.423,0,0,0-.211,1.659c-.006.064-.029.076-.082.07-.129,0-.258-.012-.393,0-.111.012-.123-.041-.106-.129.018-.106.029-.217.047-.328-.012.006-.023.006-.029.012a.967.967,0,0,1-.616.463,1.59,1.59,0,0,1-1.091-.094.721.721,0,0,1-.4-.592,2.527,2.527,0,0,1,.592-2.07,1.459,1.459,0,0,1,.973-.463,2.155,2.155,0,0,1,.962.1c.07-.44.141-.874.2-1.308.012-.076.029-.1.106-.1.152.006.311.006.463,0C27.3,145.758,27.316,145.776,27.3,145.852Z" fill="#fff"/><path d="M418.758,238.445a2.3,2.3,0,0,1,.258-1.079.94.94,0,0,1,.668-.557,1.521,1.521,0,0,1,.839.082c.041.018.053.035.041.076-.106.539-.17,1.085-.328,1.613a.857.857,0,0,1-.85.651.571.571,0,0,1-.627-.6C418.752,238.569,418.758,238.51,418.758,238.445Z" transform="translate(-394.198 -89.321)" fill="#fff"/><path d="M150.991,237.439a2.271,2.271,0,0,1-.358,1.249.871.871,0,0,1-.95.352.546.546,0,0,1-.4-.592c.023-.317.106-.627.152-.944a2.218,2.218,0,0,0,.059-.334.506.506,0,0,1,.346-.463.953.953,0,0,1,.78-.041.593.593,0,0,1,.369.563A1.376,1.376,0,0,1,150.991,237.439Z" transform="translate(-140.521 -89.147)" fill="#fff"/><path d="M333.3,256.006h.352c.041,0,.094,0,.076.065a1.712,1.712,0,0,1-.422,1.02.832.832,0,0,1-.815.193c-.3-.082-.364-.334-.3-.616a.8.8,0,0,1,.862-.668C333.129,256,333.211,256.006,333.3,256.006Z" transform="translate(-312.685 -107.41)" fill="#fff"/><path d="M206.3,237.251a.867.867,0,0,1,.557-.692,1.07,1.07,0,0,1,.715-.006.4.4,0,0,1,.276.44c-.018.258-.018.258-.276.258Z" transform="translate(-194.2 -89.048)" fill="#fff"/></g></svg>