<svg xmlns="http://www.w3.org/2000/svg" width="25.762" height="8.32" viewBox="0 0 25.762 8.32"><g transform="translate(-1.392 -185.347)"><path d="M370.929,196.255c-.278,0-.555-.005-.833.005-.1.005-.136-.025-.151-.121-.061-.328-.136-.656-.2-.979-.015-.071-.035-.1-.116-.1-.833.005-1.66.005-2.493,0a.108.108,0,0,0-.121.086c-.121.343-.247.681-.368,1.024a.117.117,0,0,1-.131.091c-.656-.005-1.317,0-1.973,0-.116,0-.116,0-.071-.111.424-1.014.853-2.034,1.277-3.048.495-1.181.984-2.367,1.479-3.548.1-.242.207-.479.308-.722a.949.949,0,0,1,.939-.626c.545,0,1.1,0,1.64-.005.081,0,.106.03.126.1q.379,1.824.762,3.649c.293,1.4.58,2.791.873,4.189.02.1.005.121-.1.121C371.5,196.25,371.216,196.255,370.929,196.255Zm-2.175-5.844h-.02c-.358.994-.722,1.983-1.085,2.988h1.665c.05,0,.061-.02.05-.066-.02-.1-.045-.2-.066-.3Q369.026,191.728,368.754,190.41Z" transform="translate(-344.727 -2.709)" fill="#fff"/><path d="M6.817,193.386c.192-.49.373-.949.56-1.413.338-.858.681-1.716,1.019-2.569.187-.469.368-.934.555-1.4.02-.05.035-.091.111-.091.691.005,1.383.005,2.074.005.01,0,.02.005.04.005-.126.3-.247.6-.373.893q-1,2.385-2,4.774c-.318.757-.636,1.519-.954,2.276a.142.142,0,0,1-.156.1c-.656-.005-1.317-.005-1.973,0-.1,0-.131-.025-.156-.121-.232-.919-.474-1.837-.712-2.761-.217-.833-.429-1.665-.646-2.5-.1-.389-.207-.772-.3-1.161a.868.868,0,0,0-.459-.6,7.984,7.984,0,0,0-1.534-.56c-.151-.04-.3-.076-.449-.106-.061-.015-.076-.035-.061-.1.03-.161.025-.161.2-.161,1.075,0,2.15.015,3.225-.005a1.058,1.058,0,0,1,1.156.969c.262,1.469.545,2.937.823,4.406A.267.267,0,0,0,6.817,193.386Z" transform="translate(0 -2.42)" fill="#fff"/><path d="M266.261,191.955a4.63,4.63,0,0,0,.989.01,1.528,1.528,0,0,0,.641-.227.619.619,0,0,0,.061-1.03,4.473,4.473,0,0,0-.934-.555,4.489,4.489,0,0,1-1.136-.777,1.949,1.949,0,0,1-.419-2.236,2.617,2.617,0,0,1,1.494-1.438,4.716,4.716,0,0,1,2.044-.353,5.693,5.693,0,0,1,1.665.318c.076.025.1.056.076.136-.116.51-.222,1.019-.328,1.529-.015.066-.035.076-.1.045a4.076,4.076,0,0,0-1.544-.348,2.049,2.049,0,0,0-.818.116.893.893,0,0,0-.353.237.484.484,0,0,0-.005.681,1.558,1.558,0,0,0,.464.348c.293.167.6.318.888.484a3.747,3.747,0,0,1,.843.611,1.948,1.948,0,0,1,.575,1.681,2.456,2.456,0,0,1-1.287,1.933,4.373,4.373,0,0,1-2.221.54.293.293,0,0,0-.015-.071c-.136-.379-.283-.757-.414-1.136A2.432,2.432,0,0,1,266.261,191.955Z" transform="translate(-250.576 0)" fill="#fff"/><path d="M182.381,190.268c-.1.459-.192.919-.288,1.383l-.984,4.6c-.015.076-.035.1-.116.1-.631-.005-1.267-.005-1.9,0-.066,0-.091-.005-.076-.086.187-.848.363-1.7.545-2.544q.575-2.672,1.146-5.345c.01-.055.03-.081.091-.081.288.005.575.005.863.005a.316.316,0,0,0,.03.136c.121.333.242.671.373,1C182.169,189.718,182.255,190,182.381,190.268Z" transform="translate(-168.66 -2.804)" fill="#fff"/><path d="M250.568,307.374a2.974,2.974,0,0,0,.172.5c.136.379.278.757.414,1.135a.451.451,0,0,1,.015.071,6.517,6.517,0,0,1-2.306-.368c-.1-.035-.116-.076-.1-.177.116-.515.222-1.03.333-1.549.005-.025.015-.056.025-.091A4.712,4.712,0,0,0,250.568,307.374Z" transform="translate(-234.884 -115.419)" fill="#fff"/><path d="M232.107,190.078c-.126-.267-.212-.555-.318-.833-.126-.333-.247-.671-.373-1a.316.316,0,0,1-.03-.136c.363,0,.727,0,1.09-.005.05,0,.061.02.05.066C232.384,188.807,232.248,189.442,232.107,190.078Z" transform="translate(-218.385 -2.614)" fill="#fff"/></g></svg>