<svg xmlns="http://www.w3.org/2000/svg" width="26.857" height="13.408" viewBox="0 0 26.857 13.408"><g transform="translate(0.024 -115.24)"><path d="M226.988,120.546c0,1.626.005,3.258-.005,4.884,0,.273.068.414.33.5.4.136.787.325,1.186.477.226.089.351.173.22.456-.231.488-.435.986-.629,1.49-.089.226-.178.262-.4.163-.43-.2-.871-.378-1.317-.54a2.1,2.1,0,0,1-1.458-2.119c-.016-3.42-.005-6.846-.016-10.266,0-.294.1-.357.367-.346a10.262,10.262,0,0,0,1.332-.005c.346-.026.4.11.4.42C226.983,117.289,226.988,118.92,226.988,120.546Z" transform="translate(-213.125 0)" fill="#fff"/><path d="M306.2,194.239a5.535,5.535,0,0,1,1.563-3.819c.194-.2.315-.273.525-.01.325.409.682.8,1.044,1.18.173.184.152.283-.016.477a3.131,3.131,0,0,0,.01,4.359c.168.189.173.294.005.472-.351.367-.692.745-1.007,1.144-.2.262-.336.262-.561.021A5.511,5.511,0,0,1,306.2,194.239Z" transform="translate(-290.161 -71.065)" fill="#fff"/><path d="M380.227,162.4a5.484,5.484,0,0,1,5.277,4.023c.068.262.058.378-.241.42-.519.079-1.033.189-1.542.3-.226.052-.325.037-.414-.226a3.181,3.181,0,0,0-3.835-2.182c-.2.037-.289.016-.351-.194-.168-.546-.352-1.091-.551-1.626-.084-.226.021-.289.2-.33A7.118,7.118,0,0,1,380.227,162.4Z" transform="translate(-358.706 -44.686)" fill="#fff"/><path d="M377.8,284.306c.194-.582.393-1.154.567-1.731.079-.262.178-.351.477-.289a3.174,3.174,0,0,0,3.735-2.13c.094-.278.163-.357.462-.278a12.736,12.736,0,0,0,1.542.309c.3.042.273.163.215.393a5.481,5.481,0,0,1-5.665,4.018A4.082,4.082,0,0,1,377.8,284.306Z" transform="translate(-358.005 -155.975)" fill="#fff"/><path d="M52.81,315.053a5.7,5.7,0,0,1-2.586-.661c-.22-.115-.283-.215-.131-.441.309-.462.608-.934.892-1.411.11-.184.2-.194.378-.1a3.1,3.1,0,0,0,3.536-.372c.168-.131.247-.131.388.021.383.409.766.813,1.175,1.191.21.194.152.294-.037.451A5.645,5.645,0,0,1,52.81,315.053Z" transform="translate(-47.409 -186.413)" fill="#fff"/><path d="M10.631,166.56A5.469,5.469,0,0,0-.023,168.233a5.643,5.643,0,0,0,.635,2.654c.157.32.325.357.645.22q4.532-1.951,9.08-3.871C10.71,167.079,10.757,166.927,10.631,166.56ZM2.5,168.522c-.168.073-.283.115-.3-.163a3.271,3.271,0,0,1,2.161-3.095,3.074,3.074,0,0,1,3.5.976C6.062,167,4.284,167.761,2.5,168.522Z" transform="translate(0 -45.111)" fill="#fff"/></g></svg>