<svg xmlns="http://www.w3.org/2000/svg" width="28.302" height="7.739" viewBox="0 0 28.302 7.739"><g transform="translate(-0.628 -193.9)"><path d="M80.895,195.666c-.249.669-.5,1.338-.741,2.013a.225.225,0,0,1-.265.177,4.138,4.138,0,0,0-.453,0,.179.179,0,0,1-.2-.138c-.243-.675-.492-1.344-.741-2.013a.236.236,0,0,0-.1-.16v2.162c0,.111-.028.155-.144.155q-.315-.008-.63,0c-.094,0-.116-.028-.116-.122.006-1.039.006-2.073,0-3.113,0-.116.044-.133.144-.133.381.006.757.006,1.139,0a.178.178,0,0,1,.194.149c.216.614.442,1.222.663,1.836.011.033.028.061.055.122.16-.442.31-.857.459-1.272.088-.238.177-.481.26-.724a.139.139,0,0,1,.149-.111c.381.006.757.006,1.139,0,.138-.006.144.055.144.166-.006.863,0,1.725,0,2.588v.492c0,.061,0,.122-.088.116a6.466,6.466,0,0,1-.8-.017c-.028-.475-.006-.956-.011-1.432v-.592C80.945,195.76,80.983,195.683,80.895,195.666Z" transform="translate(-72.621 -0.561)" fill="#fff"/><path d="M440.985,194.4a10.42,10.42,0,0,1,1.1-.017c.077,0,.094.083.122.127l1.145,1.708c.033.05.05.116.144.149v-.332c0-.5,0-1-.006-1.5,0-.111.028-.155.149-.149q.315.008.63,0c.083,0,.111.022.111.105v3.146c0,.083-.022.111-.105.111-.3-.006-.6-.006-.89,0-.088,0-.116-.044-.155-.105l-1.161-1.725c-.05-.011-.055-.105-.122-.077s-.033.094-.033.138v1.548a.305.305,0,0,1-.017.171.169.169,0,0,1-.144.044,7.242,7.242,0,0,1-.774-.017.235.235,0,0,1-.017-.138v-3.052A.28.28,0,0,1,440.985,194.4Z" transform="translate(-415.987 -0.451)" fill="#fff"/><path d="M78.662,274.773c-.122-.033-.16,0-.16.133,0,.4-.006.4.4.4.459,0,.923.006,1.382-.006.144-.006.177.044.171.177a4.438,4.438,0,0,0,0,.47c.006.088-.022.122-.116.122-.874-.006-1.747-.006-2.626,0-.1,0-.111-.044-.111-.127,0-1.039.006-2.073,0-3.113,0-.105.033-.127.127-.127.863,0,1.725.006,2.588,0,.116,0,.138.044.133.144-.006.149-.006.3,0,.453.006.127-.033.171-.166.171-.536-.006-1.073,0-1.609-.006-.138,0-.177.033-.177.171.006.365,0,.365.37.365.459,0,.923.005,1.382,0,.111,0,.155.028.149.144-.017.21.017.42-.017.63-.061.039-.127.017-.188.017H78.827C78.772,274.79,78.711,274.812,78.662,274.773Z" transform="translate(-72.716 -74.443)" fill="#fff"/><path d="M169.512,196.567c-.033.431-.033.431.393.431.459,0,.923.006,1.382,0,.122,0,.166.033.16.16a4.438,4.438,0,0,0,0,.47c.006.111-.039.138-.144.138q-1.285-.008-2.571,0c-.116,0-.133-.039-.133-.138.006-1.028.006-2.051,0-3.08,0-.127.044-.149.16-.149.84.006,1.681.006,2.516,0,.133,0,.177.033.166.166a4.445,4.445,0,0,0,0,.47c.006.111-.033.138-.138.133-.542-.006-1.084.006-1.625-.006-.149,0-.2.039-.177.182.011.077.006.16.011.243a.211.211,0,0,0,.21.088h1.5a.305.305,0,0,1,.171.017,7.13,7.13,0,0,1,.006.769.5.5,0,0,1-.238.017h-1.432C169.639,196.484,169.562,196.484,169.512,196.567Z" transform="translate(-158.685 -0.472)" fill="#fff"/><path d="M338.106,274.475c0-.5.006-1,0-1.5,0-.122.022-.171.16-.171.846.006,1.692.006,2.532,0,.111,0,.155.033.149.149a3.105,3.105,0,0,0,0,.453c.011.127-.033.171-.166.171-.531-.006-1.062,0-1.592-.011-.16-.006-.194.044-.188.2.017.343.006.343.354.343.459,0,.923.006,1.382-.005.133,0,.171.039.166.166a3.106,3.106,0,0,0,0,.453c.011.122-.044.149-.149.144-.52-.006-1.039.006-1.554-.006-.149,0-.2.028-.2.188.011.348,0,.348.359.348.475,0,.956.006,1.432-.006.127,0,.16.039.155.155a4.774,4.774,0,0,0,0,.487c.006.088-.022.122-.116.122-.868,0-1.736-.006-2.6,0-.127,0-.127-.061-.127-.155.006-.5.006-1.012.006-1.52Z" transform="translate(-318.813 -74.538)" fill="#fff"/><path d="M396.409,275.4c.592-.006,1.189-.006,1.78-.006a.291.291,0,0,0,.293-.144.257.257,0,0,0-.249-.387c-.288-.011-.569,0-.857-.006a1.14,1.14,0,0,1-.791-.271,1.048,1.048,0,0,1,.3-1.67,1.464,1.464,0,0,1,.575-.116c.569,0,1.144,0,1.714-.006.133,0,.166.028.1.155a4.97,4.97,0,0,0-.227.492.181.181,0,0,1-.2.127c-.448-.006-.9,0-1.344,0-.221,0-.343.133-.3.326.033.166.166.2.3.2.31.006.619,0,.929.006a.923.923,0,0,1,.94.686,1.055,1.055,0,0,1-1.039,1.366c-.647.033-1.294,0-1.941,0A3.84,3.84,0,0,1,396.409,275.4Z" transform="translate(-373.788 -74.538)" fill="#fff"/><path d="M458.195,272.758c.315,0,.63.006.945,0,.111,0,.133.033.088.127-.083.171-.166.348-.243.525a.176.176,0,0,1-.188.116c-.442-.005-.885,0-1.327,0a.363.363,0,0,0-.249.066.25.25,0,0,0,.05.42.572.572,0,0,0,.271.044,6.192,6.192,0,0,1,1.012.028.848.848,0,0,1,.785.84,1.019,1.019,0,0,1-.6,1.078,1.308,1.308,0,0,1-.542.116c-.569,0-1.144,0-1.714.006-.105,0-.149-.022-.144-.133.011-.2-.066-.464.033-.6s.37-.033.564-.039c.393-.006.78,0,1.172,0,.216,0,.337-.094.343-.265s-.122-.26-.337-.271c-.332-.011-.663.022-1-.022a.914.914,0,0,1-.879-.874,1.015,1.015,0,0,1,.724-1.1,3.29,3.29,0,0,1,.9-.066c.111-.006.221,0,.332,0Z" transform="translate(-430.416 -74.496)" fill="#fff"/><path d="M131.828,272.8h1.1c.072,0,.1.055.133.1.227.26.459.525.68.8.088.105.138.1.221-.006.21-.26.442-.509.652-.769a.282.282,0,0,1,.254-.116c.315.006.625,0,.94,0,.006.088-.055.122-.094.166-.4.453-.8.907-1.211,1.355-.088.094-.077.155.006.243.426.47.84.945,1.261,1.421.039.044.072.088.105.133-.028.066-.083.039-.122.039-.293,0-.581,0-.874.006a.252.252,0,0,1-.21-.094c-.243-.288-.5-.569-.735-.863-.077-.094-.127-.105-.21,0-.232.282-.475.558-.708.84a.316.316,0,0,1-.271.122c-.31-.005-.614,0-.945,0a1.557,1.557,0,0,1,.282-.354c.365-.415.73-.829,1.1-1.238.083-.088.083-.138,0-.227-.426-.47-.846-.945-1.266-1.415A.387.387,0,0,0,131.828,272.8Z" transform="translate(-123.919 -74.538)" fill="#fff"/><path d="M323.2,194.5c.2,0,.4.006.592,0,.094,0,.122.033.116.122-.006.182-.006.359,0,.542.005.105-.044.127-.133.127-.254,0-.514.011-.769,0-.713-.028-1.028.393-.945,1.095a.753.753,0,0,0,.769.713,4.873,4.873,0,0,0,.492,0c.094,0,.133.017.083.116-.088.182-.171.37-.26.553-.022.044-.044.094-.111.094a1.689,1.689,0,0,1-1.565-.586,1.443,1.443,0,0,1-.288-.735,1.981,1.981,0,0,1,.232-1.349,1.51,1.51,0,0,1,1.25-.68c.177-.011.359,0,.542,0Z" transform="translate(-302.805 -0.567)" fill="#fff"/><path d="M295.908,196.089c0-.514.006-1.028-.005-1.537,0-.122.033-.166.155-.16a4.992,4.992,0,0,0,.575,0c.133-.006.166.033.166.166-.006.713-.006,1.421-.006,2.134,0,.31-.006.619,0,.929,0,.105-.028.144-.138.138-.2-.006-.4-.011-.6,0-.133.006-.171-.033-.166-.166.017-.5.011-1,.017-1.5Z" transform="translate(-278.938 -0.464)" fill="#fff"/><path d="M440.759,193.95v3.328c-.055-.072-.033-.155-.033-.238v-2.969a1.157,1.157,0,0,1,.006-.138c0-.011.006-.033.011-.033C440.781,193.9,440.747,193.933,440.759,193.95Z" transform="translate(-415.76)" fill="#fff"/><path d="M342.059,271.817H339.4V271.8h2.676C342.065,271.806,342.065,271.811,342.059,271.817Z" transform="translate(-320.041 -73.593)" fill="#fff"/><path d="M224.711,314.473c-.006-.321-.006-.636-.011-.957,0-.105.061-.094.127-.094.42,0,.835.011,1.255-.022-.033.088-.116.066-.182.066-.326,0-.652.006-.979,0-.127,0-.177.044-.171.171q.008.34,0,.68C224.75,314.373,224.794,314.439,224.711,314.473Z" transform="translate(-211.683 -112.893)" fill="#fff"/><path d="M138.9,213.244c.011-.05.028-.1.039-.144a.05.05,0,0,1,.028.006v2.311c-.044-.05-.028-.111-.028-.166v-1.78A.5.5,0,0,0,138.9,213.244Z" transform="translate(-130.627 -18.138)" fill="#fff"/><path d="M457.9,219.924V217.9a.7.7,0,0,1,.171.243c-.133-.055-.144.011-.144.122.005.5.005,1,0,1.5C457.933,219.819,457.966,219.879,457.9,219.924Z" transform="translate(-431.989 -22.673)" fill="#fff"/><path d="M21.6,243.075c.022-.133.094-.188.238-.182.4.011.8.011,1.2,0,.149-.006.232.039.249.188a.491.491,0,0,0-.453-.138c-.254.006-.514.011-.769,0A.58.58,0,0,0,21.6,243.075Z" transform="translate(-19.812 -46.283)" fill="#fff"/><path d="M184.992,231.787c-.033-.138.072-.1.138-.105h1.742c-.055.061-.133.039-.2.039H185.3A.616.616,0,0,0,184.992,231.787Z" transform="translate(-174.164 -35.692)" fill="#fff"/><path d="M186.875,216.105c-.592,0-1.189,0-1.78.006-.083,0-.122-.022-.1-.111a.564.564,0,0,0,.3.066c.459-.006.918,0,1.377,0C186.742,216.066,186.814,216.044,186.875,216.105Z" transform="translate(-174.168 -20.878)" fill="#fff"/><path d="M386.4,243.047c.022-.072.088-.044.133-.044.442-.006.879.006,1.321-.006.188-.006.171.149.221.254-.006,0-.017,0-.017-.006-.116-.243-.337-.2-.547-.2C387.141,243.047,386.77,243.042,386.4,243.047Z" transform="translate(-364.443 -46.383)" fill="#fff"/><path d="M96.8,310.2H98.52c-.033.044-.083.039-.127.039H96.927C96.877,310.239,96.833,310.244,96.8,310.2Z" transform="translate(-90.854 -109.87)" fill="#fff"/><path d="M397.621,319.9v.746A1.549,1.549,0,0,1,397.621,319.9Z" transform="translate(-375 -119.034)" fill="#fff"/><path d="M232.861,196.636a1.216,1.216,0,0,0,.619-.343,1.057,1.057,0,0,0,.182-1.172,1.025,1.025,0,0,0-.99-.625c-.647-.022-1.294-.006-1.941-.011-.1,0-.133.028-.133.127,0,1.039.006,2.073,0,3.113,0,.105.039.127.133.127.2-.006.409-.011.614,0,.138.011.166-.044.16-.171-.006-.293-.006-.581,0-.874,0-.044-.028-.133.044-.133.127,0,.26-.044.365.088.216.265.464.5.669.78a.65.65,0,0,0,.658.3,6.041,6.041,0,0,1,.713-.006C233.575,197.422,233.226,197.034,232.861,196.636Zm-.359-.719c-.3.011-.592.006-.89.006-.072,0-.111-.022-.105-.1v-.033c.017-.177-.077-.415.039-.514.105-.083.332-.017.509-.017v-.006c.144,0,.293-.006.437,0a.332.332,0,0,1,.354.332C232.85,195.785,232.734,195.907,232.5,195.918Z" transform="translate(-217.257 -0.552)" fill="#fff"/><path d="M275.879,276.157c-.3-.337-.608-.675-.918-1-.088-.094-.072-.122.044-.155a.99.99,0,0,0,.536-.37,1.074,1.074,0,0,0,.111-1.122,1.04,1.04,0,0,0-1.023-.6c-.63-.011-1.261,0-1.891-.006-.111,0-.138.033-.138.138.006,1.034,0,2.062,0,3.1,0,.1.033.133.133.133.2-.006.409-.011.614,0,.122.006.16-.022.155-.155-.011-.3-.006-.6,0-.89,0-.05-.022-.133.066-.133.138-.006.26-.022.37.116.265.332.553.641.829.962.039.044.072.1.155.1.332-.006.663,0,1.028,0A.371.371,0,0,0,275.879,276.157Zm-1.349-1.836a4.757,4.757,0,0,1-.487.006v.006c-.138,0-.282-.006-.42,0-.083.006-.127-.017-.122-.116.006-.144.006-.293,0-.437-.006-.089.022-.127.116-.127.3.006.592-.006.89.006a.324.324,0,0,1,.343.337A.311.311,0,0,1,274.53,274.321Z" transform="translate(-256.935 -74.632)" fill="#fff"/><path d="M368.313,197.54c-.133-.293-.26-.586-.387-.879-.326-.741-.652-1.482-.979-2.217-.033-.072-.05-.144-.166-.144-.315.011-.63.006-.945,0a.15.15,0,0,0-.16.105c-.459,1.045-.918,2.084-1.382,3.129-.055.122-.011.138.1.133q.348-.008.7,0a.167.167,0,0,0,.188-.133c.061-.171.138-.332.21-.5.05-.039.111-.022.166-.022.359,0,.724.011,1.084-.006.2-.011.348.033.42.232.044.1.1.2.138.3a.164.164,0,0,0,.177.127c.249-.006.5-.006.752,0C368.34,197.673,368.357,197.645,368.313,197.54Zm-1.681-1.288c-.232-.006-.464,0-.7,0-.055,0-.116,0-.083-.083.138-.332.276-.663.437-1.039.155.37.288.686.42,1C366.748,196.219,366.743,196.257,366.632,196.252Z" transform="translate(-343.536 -0.378)" fill="#fff"/><path d="M4.657,197.623q-.688-1.551-1.371-3.1A.173.173,0,0,0,3.1,194.4c-.3.006-.592.006-.89,0a.177.177,0,0,0-.194.127c-.149.354-.3.7-.459,1.056-.3.675-.6,1.349-.9,2.024-.066.144-.028.166.111.16a2.485,2.485,0,0,1,.453,0c.271.039.431-.05.487-.321a.889.889,0,0,1,.083-.182.328.328,0,0,1,.348-.155c.332.011.658.011.99,0,.155-.006.282.011.359.16.055.127.122.249.171.382.033.077.072.122.166.116.249-.006.5-.006.752,0C4.707,197.773,4.7,197.723,4.657,197.623Zm-1.913-1.277h-.47c-.066,0-.1-.011-.066-.088.138-.332.276-.658.431-1.039.127.293.232.542.337.791C3.115,196.346,3.115,196.346,2.744,196.346Z" transform="translate(0 -0.472)" fill="#fff"/><path d="M211.563,273.711a1.083,1.083,0,0,0-1.095-.929c-.641-.011-1.283-.005-1.924-.005-.083,0-.144,0-.144.116.006,1.045.006,2.084,0,3.129,0,.094.033.122.122.122.221-.006.442,0,.663,0a.135.135,0,0,0,.122-.044,6.752,6.752,0,0,0,.017-.885c0-.111.033-.138.138-.138.26.006.525.006.785,0a1.232,1.232,0,0,0,.426-.05l.077-.033A1.115,1.115,0,0,0,211.563,273.711Zm-1.156.542a6.39,6.39,0,0,1-1.028.022c-.077,0-.072-.061-.072-.111,0-.177.006-.348-.006-.525-.006-.083.033-.1.105-.1h.492v.006c.149,0,.3-.006.453,0a.356.356,0,0,1,.326.332A.343.343,0,0,1,210.407,274.253Z" transform="translate(-196.284 -74.514)" fill="#fff"/></g></svg>