<svg xmlns="http://www.w3.org/2000/svg" width="23.077" height="14.292" viewBox="0 0 23.077 14.292"><g transform="translate(-1.011 -98.054)"><path d="M12.037,111.34a7.1,7.1,0,0,1-9.284-1.267,7.189,7.189,0,0,1,.036-9.424,7.066,7.066,0,0,1,9.239-1.217,7.827,7.827,0,0,0,.009,11.908Z" transform="translate(0 -0.172)" fill="#fff"/><path d="M268.1,111.2c3.656-4.678,3.66-8.175.009-11.913,2.194-1.887,6.3-1.574,8.682.656A7.137,7.137,0,0,1,268.1,111.2Z" transform="translate(-255.005)" fill="#fff"/><path d="M195.5,140.505a7.29,7.29,0,0,1,2.24-5.18c.348-.344.566-.412.968-.027a7.206,7.206,0,0,1,.027,10.42c-.421.4-.651.339-1.027-.036A7.3,7.3,0,0,1,195.5,140.505Z" transform="translate(-185.689 -35.309)" fill="#fff"/></g></svg>